<svg xmlns="http://www.w3.org/2000/svg" xmlns:xlink="http://www.w3.org/1999/xlink" viewBox="0 0 280 250" preserveAspectRatio="xMidYMid" style="display: block; shape-rendering: auto; background: rgb(255, 255, 255);" width="280" height="250"><style type="text/css">
  .ld-text text {
    text-anchor: middle;
    dominant-baseline: middle;
    font-size: 80px;
    opacity: 0;
    user-select: none;
    pointer-events: none;
  }
</style>
<g style="transform-origin:140px 125px;transform:scale(1)" class="ld-text">
<g transform="translate(140,125)">
  <g transform="scale(1.0000) translate(0,0)"><g class="path" style="opacity: 1; transform-origin: -34.6px 1.7px; transform: matrix3d(0.91, 0, 0, 0, 0, 0.91, 0, 0, 0, 0, 0.91, 0, 0, 0, 0, 1); animation: 1s linear -0.44s infinite normal forwards running animate-pfpjfrlnh8; transform-box: view-box;"><path d="M23.44 22.29L0.48 22.29L0.48 20.69L36.56-9.31L28 14.77L34.48 14.77L31.76 22.29L25.36 22.29L20.16 36.93L18.40 36.77L23.44 22.29 zM26.16 14.77L32.96-4.19L10.24 14.77L26.16 14.77" style="fill: rgb(255, 0, 0);" transform="translate(-53.120,-12.107)"></path></g><g class="path" style="opacity: 1; transform-origin: 1.96px -3.42px; transform: matrix3d(0.91, 0, 0, 0, 0, 0.91, 0, 0, 0, 0, 0.91, 0, 0, 0, 0, 1); animation: 1s linear -0.22s infinite normal forwards running animate-pfpjfrlnh8; transform-box: view-box;"><path d="M51.04 24.93L51.04 24.93Q46.24 24.93 43.08 21.61Q39.92 18.29 39.92 13.41Q39.92 8.53 42 4.45Q44.08 0.37 47.12-2.15Q50.16-4.67 53.36-6.11Q56.56-7.55 59.04-7.55L59.04-7.55L59.04-5.87Q55.04-5.87 52 0.13Q48.96 6.13 48.96 13.57L48.96 13.57Q48.96 21.97 55.36 21.97L55.36 21.97Q59.76 21.97 64.24 17.01Q68.72 12.05 68.72 6.05L68.72 6.05Q68.72 2.85 67.28 0.97Q65.84-0.91 63.04-0.91Q60.24-0.91 58.80 0.93L58.80 0.93Q57.84 1.89 57.32 3.45Q56.80 5.01 56.72 6.13L56.72 6.13L56.72 7.17L55.12 7.17Q55.12 2.53 57.44 0.05Q59.76-2.43 63.16-2.43Q66.56-2.43 68.40-0.15Q70.24 2.13 70.24 6.05L70.24 6.05Q70.24 12.45 64.72 18.69Q59.20 24.93 51.04 24.93" style="fill: rgb(251, 176, 52);" transform="translate(-53.120,-12.107)"></path></g><g class="path" style="opacity: 1; transform-origin: 35.56px 1.7px; transform: matrix3d(0.91, 0, 0, 0, 0, 0.91, 0, 0, 0, 0, 0.91, 0, 0, 0, 0, 1); animation: 1s linear 0s infinite normal forwards running animate-pfpjfrlnh8; transform-box: view-box;"><path d="M93.60 22.29L70.64 22.29L70.64 20.69L106.72-9.31L98.16 14.77L104.64 14.77L101.92 22.29L95.52 22.29L90.32 36.93L88.56 36.77L93.60 22.29 zM96.32 14.77L103.12-4.19L80.40 14.77L96.32 14.77" style="fill: rgb(255, 221, 0);" transform="translate(-53.120,-12.107)"></path></g></g><text dy="0.35em" fill="#ff0000" font-family="Sail" font-size="80">404</text>
</g>
</g><style type="text/css">@keyframes animate-pfpjfrlnh8 { 0.00% {transform: translate(0.00px,0.00px) rotate(0.00deg) scale(0.91, 0.91) skew(0deg, 0.00deg) ;opacity: 1.00;}4.00% {transform: translate(0.00px,0.00px) rotate(0.00deg) scale(0.91, 0.91) ;}8.00% {animation-timing-function: cubic-bezier(0.69,0.60,0.35,0.27);transform: translate(0.00px,0.00px) rotate(0.00deg) scale(0.91, 0.91) ;}14.00% {transform: translate(0.00px,0.00px) rotate(0.00deg) scale(0.93, 0.93) ;}18.00% {transform: translate(0.00px,0.00px) rotate(0.00deg) scale(0.94, 0.94) ;}22.00% {animation-timing-function: cubic-bezier(0.67,0.66,0.34,0.33);transform: translate(0.00px,0.00px) rotate(0.00deg) scale(0.96, 0.96) ;}26.00% {transform: translate(0.00px,0.00px) rotate(0.00deg) scale(0.97, 0.97) ;}30.00% {transform: translate(0.00px,0.00px) rotate(0.00deg) scale(0.99, 0.99) ;}34.00% {animation-timing-function: cubic-bezier(0.65,0.71,0.32,0.38);transform: translate(0.00px,0.00px) rotate(0.00deg) scale(1.01, 1.01) ;}40.00% {animation-timing-function: cubic-bezier(0.64,0.74,0.31,0.41);transform: translate(0.00px,0.00px) rotate(0.00deg) scale(1.02, 1.02) ;}46.00% {animation-timing-function: cubic-bezier(0.60,0.91,0.23,0.63);transform: translate(0.00px,0.00px) rotate(0.00deg) scale(1.03, 1.03) ;}50.00% {transform: translate(0.00px,0.00px) rotate(0.00deg) scale(1.03, 1.03) ;}54.00% {transform: translate(0.00px,0.00px) rotate(0.00deg) scale(1.03, 1.03) ;}58.00% {animation-timing-function: cubic-bezier(0.69,0.60,0.35,0.27);transform: translate(0.00px,0.00px) rotate(0.00deg) scale(1.03, 1.03) ;}64.00% {transform: translate(0.00px,0.00px) rotate(0.00deg) scale(1.01, 1.01) ;}68.00% {transform: translate(0.00px,0.00px) rotate(0.00deg) scale(1.00, 1.00) ;}72.00% {animation-timing-function: cubic-bezier(0.67,0.66,0.34,0.33);transform: translate(0.00px,0.00px) rotate(0.00deg) scale(0.98, 0.98) ;}76.00% {animation-timing-function: cubic-bezier(0.66,0.68,0.33,0.35);transform: translate(0.00px,0.00px) rotate(0.00deg) scale(0.97, 0.97) ;}82.00% {animation-timing-function: cubic-bezier(0.65,0.71,0.32,0.38);transform: translate(0.00px,0.00px) rotate(0.00deg) scale(0.94, 0.94) ;}88.00% {animation-timing-function: cubic-bezier(0.65,0.73,0.31,0.40);transform: translate(0.00px,0.00px) rotate(0.00deg) scale(0.92, 0.92) ;}94.00% {animation-timing-function: cubic-bezier(0.63,0.80,0.28,0.48);transform: translate(0.00px,0.00px) rotate(0.00deg) scale(0.91, 0.91) ;}100.00% {animation-timing-function: cubic-bezier(0.63,0.80,0.28,0.48);transform: translate(0.00px,0.00px) rotate(0.00deg) scale(0.91, 0.91) ;} }</style><!-- [ldio] generated by https://loading.io --></svg>